<svg xmlns="http://www.w3.org/2000/svg" xmlns:xlink="http://www.w3.org/1999/xlink" width="273.926" height="220" class="icon" p-id="2207" t="1630417716860" version="1.1" viewBox="0 0 1275 1024"><defs><style type="text/css"/></defs><path fill="#1296db" d="M1056.161185 0H218.908444A219.060148 219.060148 0 0 0 0 218.908444v586.031408A219.211852 219.211852 0 0 0 218.908444 1024h837.252741a219.211852 219.211852 0 0 0 218.908445-219.060148V218.908444A219.060148 219.060148 0 0 0 1056.161185 0z m116.053334 218.908444v586.031408a116.205037 116.205037 0 0 1-116.053334 116.053333H218.908444a116.053333 116.053333 0 0 1-115.901629-116.053333V218.908444a114.081185 114.081185 0 0 1 7.736889-41.415111l439.94074 369.701926a135.016296 135.016296 0 0 0 174.762667 0l439.940741-369.853629a114.232889 114.232889 0 0 1 6.826667 41.566814zM658.545778 468.612741a32.464593 32.464593 0 0 1-42.021926 0L187.354074 107.406222a114.081185 114.081185 0 0 1 31.55437-4.399407h837.252741a114.081185 114.081185 0 0 1 31.554371 4.399407z" p-id="2208"/></svg>